<?xml version="1.0" encoding="UTF-8"?>
<svg version="1.1" xmlns="http://www.w3.org/2000/svg" width="512" height="512">
<path d="M0 0 C7.51398937 3.82666791 13.06344928 10.97216949 18.86132812 16.93945312 C24.18023665 22.35133601 29.63436719 27.33697647 35.58325195 32.05126953 C37.81424025 33.85021372 39.91423638 35.72378616 42 37.6875 C53.88705027 48.36028169 67.53609245 57.43508851 81 66 C81.57041016 66.36367676 82.14082031 66.72735352 82.72851562 67.10205078 C137.8216068 101.90179212 200.07452452 119.23448994 264.63427734 105.43701172 C306.56410429 95.83482452 346.43872368 74.78717392 380.16943359 48.42919922 C382.00674726 46.99473214 383.85566582 45.57642391 385.70703125 44.16015625 C392.16546987 39.18939392 398.34126962 34.04511836 404.3046875 28.484375 C406.42944865 26.5258995 408.58217795 24.6356369 410.7734375 22.75390625 C416.13566555 18.08260248 421.0421447 12.97305898 425.99609375 7.87695312 C426.71410156 7.14798828 427.43210937 6.41902344 428.171875 5.66796875 C428.8122168 5.01078857 429.45255859 4.3536084 430.11230469 3.67651367 C434.76259606 -0.45353688 439.06098122 -0.42977409 445.0859375 -0.3125 C450.38740101 0.25602156 452.83972495 2.77865784 456.375 6.5 C458.72325726 11.55778486 458.97097307 16.51685793 458 22 C454.74273363 28.30871647 449.25543067 33.00138652 444.25 37.9375 C442.94675781 39.23977539 442.94675781 39.23977539 441.6171875 40.56835938 C436.57112168 45.58033016 431.42809496 50.40512249 426 55 C425.3704541 55.53633057 424.7409082 56.07266113 424.09228516 56.62524414 C406.1933393 71.77417434 387.25681806 86.12394392 367 98 C368.54279355 101.68412676 370.76948067 103.99428434 373.6015625 106.78100586 C374.29943878 107.4720919 374.29943878 107.4720919 375.01141357 108.17713928 C376.01867237 109.173469 377.02819825 110.16751089 378.03973389 111.15949821 C379.64179919 112.73132587 381.23703081 114.30980235 382.83056641 115.89027405 C387.36132458 120.3813401 391.9046847 124.85958055 396.45117188 129.3347168 C399.23490031 132.07568023 402.01124113 134.82395622 404.78338623 137.57663155 C405.83942294 138.62211755 406.89836331 139.66467919 407.96026611 140.70420647 C409.44654591 142.15921467 410.92332463 143.62328352 412.3984375 145.08959961 C413.24067871 145.91914658 414.08291992 146.74869354 414.95068359 147.6033783 C418.95249977 152.28339719 419.39150807 156.6142229 419.25 162.56640625 C418.7556181 167.37890504 416.97098174 170.12374819 413.4375 173.3125 C409.78143322 175.84362316 407.68905539 176.20759695 403.25 176.3125 C402.22390625 176.34988281 401.1978125 176.38726562 400.140625 176.42578125 C393.81186132 175.56777722 389.50622936 170.79526507 385.17822266 166.40527344 C384.63114655 165.85848938 384.08407043 165.31170532 383.52041626 164.74835205 C381.73017757 162.95673045 379.94711012 161.1581509 378.1640625 159.359375 C376.91754233 158.10912101 375.67057713 156.85931058 374.42318726 155.60992432 C371.153853 152.33298272 367.89057176 149.05007796 364.62854004 145.76586914 C361.29377498 142.41058308 357.95328516 139.06100716 354.61328125 135.7109375 C348.06992451 129.14618201 341.53295202 122.57510874 335 116 C334.38050476 116.2754364 333.76100952 116.5508728 333.1227417 116.83465576 C321.30129412 122.07503484 309.55453553 127.23890692 297.25 131.25 C295.99977051 131.66056641 294.74954102 132.07113281 293.46142578 132.49414062 C285.02426122 135.21727409 276.51919143 137.53280443 267.875 139.5 C266.87114258 139.73106445 265.86728516 139.96212891 264.83300781 140.20019531 C254.98912058 142.29214039 245.0089875 143.10787563 235 144 C235.00999275 145.25787827 235.00999275 145.25787827 235.02018738 146.54116821 C235.08037928 154.45655373 235.12601542 162.37186202 235.15543652 170.28742409 C235.17107087 174.35659195 235.19226809 178.42557017 235.22631836 182.49462891 C235.25899183 186.42389151 235.27686979 190.35297207 235.28463173 194.28236008 C235.29016095 195.77903482 235.30095824 197.27569997 235.31719017 198.77229691 C235.33907143 200.87396777 235.34196258 202.97489312 235.34057617 205.07666016 C235.35056892 206.8686937 235.35056892 206.8686937 235.36076355 208.69692993 C234.88542059 213.04906335 233.46703623 216.42844211 230.46484375 219.64453125 C224.26628674 224.38460426 219.77296665 224.87470724 212 224 C206.53436394 221.79089274 204.29398167 218.33391329 202 213 C201.63923645 209.65896606 201.63923645 209.65896606 201.65942383 205.98486328 C201.65898575 205.31099075 201.65854767 204.63711823 201.65809631 203.94282532 C201.66017163 201.73501715 201.68344149 199.52798654 201.70703125 197.3203125 C201.71263172 195.78189509 201.71689969 194.2434723 201.71989441 192.70504761 C201.73130781 188.67062413 201.76074432 184.6365285 201.79400635 180.60223389 C201.8247832 176.47965936 201.83841596 172.35703148 201.85351562 168.234375 C201.88561781 160.15610013 201.93677118 152.07809094 202 144 C201.05087234 143.93624176 200.10174469 143.87248352 199.12385559 143.80679321 C197.24653999 143.6774086 197.24653999 143.6774086 195.33129883 143.54541016 C194.09342117 143.46102692 192.85554352 143.37664368 191.58015442 143.28970337 C186.89024129 142.91019917 182.31023671 142.23669239 177.6875 141.375 C176.30280518 141.11722778 176.30280518 141.11722778 174.89013672 140.85424805 C145.63076726 135.14683464 115.68286731 124.99060063 89.93652344 109.78100586 C87.40213085 108.75887753 86.55018173 109.02931355 84 110 C81.61589922 111.96178992 81.61589922 111.96178992 79.203125 114.48803711 C78.74079468 114.95314194 78.27846436 115.41824677 77.80212402 115.89744568 C76.27780119 117.43403798 74.76416931 118.98075107 73.25 120.52734375 C72.18993134 121.59809144 71.1290467 122.66803186 70.06738281 123.73719788 C67.27442248 126.55294075 64.48971403 129.37668707 61.70751953 132.20306396 C57.25590178 136.72485484 52.79686624 141.23921628 48.32849121 145.74444771 C46.77079847 147.31882254 45.21969486 148.89948743 43.66894531 150.48069763 C42.711855 151.44825153 41.75451164 152.41555519 40.796875 153.38256836 C39.96510742 154.22782578 39.13333984 155.07308319 38.27636719 155.94395447 C33.44490427 160.30779691 29.34186719 160.49520184 22.984375 160.37890625 C18.57284548 159.81880368 15.96145004 158.26452241 13 155 C9.89736747 150.69634843 9.62928498 146.80068436 9.50390625 141.66015625 C11.04077467 133.41915315 17.62703739 128.00795658 23.359375 122.41796875 C24.26375305 121.52257889 25.1681311 120.62718903 26.09991455 119.70466614 C28.48837136 117.34106168 30.88257503 114.98365251 33.28070068 112.62988281 C36.67431204 109.29843997 40.06209249 105.96118007 43.44293213 102.61677551 C45.24076148 100.83879985 47.04351145 99.06578395 48.85150146 97.29814148 C50.06341156 96.10098259 50.06341156 96.10098259 51.29980469 94.87963867 C52.37424835 93.82542976 52.37424835 93.82542976 53.47039795 92.74992371 C55.21937307 91.13639577 55.21937307 91.13639577 55 89 C52.65675605 87.27452036 50.30495903 85.65779089 47.875 84.0625 C39.93818173 78.73239485 32.42890323 73.01051319 25 67 C23.53240234 65.824375 23.53240234 65.824375 22.03515625 64.625 C16.73937904 60.34678447 11.60673772 55.929452 6.58203125 51.3359375 C4.48510698 49.43887137 2.36300262 47.58549779 0.22265625 45.73828125 C-4.14303909 41.9253933 -8.27548568 37.90816862 -12.375 33.8125 C-13.08527344 33.11447266 -13.79554687 32.41644531 -14.52734375 31.69726562 C-15.20667969 31.01986328 -15.88601562 30.34246094 -16.5859375 29.64453125 C-17.1948584 29.03971924 -17.8037793 28.43490723 -18.43115234 27.81176758 C-22.45104614 23.16943458 -22.42835346 18.866034 -22.3125 12.9140625 C-21.74397844 7.61259899 -19.22134216 5.16027505 -15.5 1.625 C-10.44221514 -0.72325726 -5.48314207 -0.97097307 0 0 Z " fill="#000000" transform="translate(38,208)"/>
</svg>
